<?xml version="1.0" encoding="utf-8"?>
<!-- Generator: Adobe Illustrator 25.0.1, SVG Export Plug-In . SVG Version: 6.00 Build 0)  -->
<svg version="1.1" id="aaafdec0-95c8-49a3-a8f8-64216c6da511"
	 xmlns="http://www.w3.org/2000/svg" xmlns:xlink="http://www.w3.org/1999/xlink" x="0px" y="0px" viewBox="0 0 1013.4 610.3"
	 style="enable-background:new 0 0 1013.4 610.3;" xml:space="preserve">
<style type="text/css">
	.st0{fill:#F2F2F2;}
	.st1{fill:#3F3D56;}
	.st2{opacity:0.1;enable-background:new    ;}
	.st3{fill:none;stroke:#3F3D56;stroke-miterlimit:10;}
	.st4{fill:#F9A826;}
	.st5{fill:#57B894;}
	.st6{fill:#A8A8A8;}
	.st7{opacity:0.2;enable-background:new    ;}
	.st8{fill:#A0616A;}
	.st9{fill:#605D82;}
	.st10{fill:#535070;}
	.st11{fill:#FFFFFF;}
</style>
<path class="st0" d="M689.5,348.4l8.7-1.5c0.8-0.1,1.7-0.3,2.5-0.5c-33.5-20.8-43.8-64.8-23-98.2c14.5-23.4,41.2-36.3,68.5-33.3
	L734.8,242l27-23.6c0.1,0,0.1,0,0.2,0.1c37.2,13.1,56.7,53.8,43.6,91c0,0,0,0,0,0c-0.5,1.3-1,2.5-1.5,3.8c7.6-3.8,14.9-8.3,20.9-14
	c12.1-11.6,18.7-27.5,26.1-47.2c14.6-39,28.7-78.5,42.3-118.1c-30.8-16.7-45-53.3-33.3-86.4c0.7-2.1,1.6-4,2.5-6
	c0.2-0.5,0.4-1,0.7-1.5c0.9-1.9,1.9-3.7,2.9-5.5c0.2-0.3,0.4-0.6,0.5-0.8c0.9-1.5,1.9-2.9,2.9-4.3c0.4-0.5,0.8-1,1.1-1.6
	c1.1-1.5,2.3-3,3.6-4.4c0.4-0.5,0.9-0.9,1.3-1.4c1-1,2-2,3-3c0.5-0.5,1.1-1,1.6-1.5c0.1-0.1,0.3-0.3,0.4-0.4c0,0,0,0,0,0
	c25.9-22.6,64.3-23.5,91.2-2l-14.8,35.3l26.7-23.3c19.2,24.4,20.2,58.5,2.6,84c0,0,0.1,0,0.1,0c-0.3,0.4-0.6,0.8-0.9,1.2
	c-0.6,0.8-1.1,1.6-1.7,2.3c-0.8,1-1.5,1.9-2.3,2.8c-0.6,0.7-1.2,1.4-1.8,2.1c-0.9,1-1.9,1.9-2.9,2.9c-0.6,0.5-1.1,1.1-1.7,1.6
	c-1.5,1.4-3.1,2.7-4.8,3.9c-0.6,0.4-1.2,0.8-1.8,1.2c-1.2,0.8-2.3,1.6-3.5,2.3c-0.7,0.5-1.5,0.9-2.3,1.3c-1.1,0.6-2.2,1.2-3.3,1.8
	c-0.8,0.4-1.6,0.8-2.4,1.2c-1.2,0.5-2.3,1-3.5,1.5c-0.8,0.3-1.6,0.6-2.4,0.9c-1.3,0.5-2.7,0.9-4,1.3c-0.7,0.2-1.4,0.4-2,0.6
	c-2,0.5-4.1,1-6.2,1.3c-0.4,0.1-0.8,0.1-1.2,0.1c-1.7,0.3-3.5,0.5-5.2,0.6c-0.8,0.1-1.5,0.1-2.3,0.1c-1.4,0.1-2.8,0.1-4.2,0.1
	c-0.8,0-1.7-0.1-2.5-0.1c-1.4-0.1-2.8-0.2-4.2-0.4c-0.8-0.1-1.6-0.2-2.5-0.3c-1.5-0.2-3-0.5-4.5-0.8c-0.1,0-0.2,0-0.3-0.1
	c-5.7,16.7-11.5,33.4-17.4,50c29.3-26.3,74.4-23.9,100.7,5.3c0.9,1,1.8,2.1,2.7,3.2l-24.7,27.3l33.4-13.3c8.1,17,9.1,36.5,2.9,54.3
	c-2.2,6.2-5.2,12.1-9.1,17.5c-22.7,32.2-67.2,39.8-99.4,17.1c-16.1-11.4-26.7-28.9-29.5-48.3c-0.6,1.7-1.2,3.4-1.9,5
	c-6.5,17.3-14.6,38.9-30.9,54.5c-11,10.6-24.6,17.3-37.7,23c-8.5,3.7-17.1,7.1-25.8,10.2c-9.7,5.9-20.6,9.4-31.9,10.2
	c-13.7,3.8-27.7,7-41.7,9.5l-8.8,1.5c-7.9,1.3-15.9,2.7-24,4.3c1.2,0.3,2.3,0.7,3.5,1.1c29.3,10.3,48.6,38.4,47.6,69.4L665,459.7
	l49.7,7.9c-14.9,36.5-56.5,54.1-93,39.2c-9.9-4-18.7-10.2-25.9-18.1c0.5,1.7,1,3.4,1.5,5.1c1,3.3,2,6.7,3,10
	c13.1,44.9,7.4,80.3-15.9,99.5l-12.6-15.3c22.7-18.7,15.6-57.3,9.4-78.7c-0.9-3.2-1.9-6.5-2.9-9.8c-8.5-28.3-18.2-60.4-5.7-89.8
	C591.5,365.2,645.8,355.9,689.5,348.4z"/>
<path class="st1" d="M673.4,609H288.5c-26.3,0-47.6-21.3-47.6-47.6l0,0V385.1c0-5.2,2.1-10.1,5.9-13.7l203.9-193.3
	c16.9-16,43.5-16,60.4,0l194.4,184.3c9.8,9.3,15.4,22.2,15.4,35.8v163.2C721,587.7,699.7,609,673.4,609L673.4,609z"/>
<path class="st2" d="M241,388h476l0,0v192.3c0,15.9-12.9,28.7-28.7,28.7c0,0,0,0,0,0H269.7c-15.9,0-28.7-12.9-28.7-28.7l0,0L241,388
	L241,388L241,388z"/>
<path class="st3" d="M240.5,376.5"/>
<path class="st4" d="M329.6,236.5h301.6c14.5,0,26.2,11.7,26.2,26.2v301.6c0,14.5-11.7,26.2-26.2,26.2H329.6
	c-14.5,0-26.2-11.7-26.2-26.2V262.7C303.5,248.2,315.2,236.5,329.6,236.5z"/>
<polygon class="st2" points="657.5,395.9 657.5,590.5 303.5,590.5 303.5,395.9 480.5,481.5 "/>
<path class="st1" d="M480.5,492.5L253.7,382.9c-4.6-2.2-10.1-0.3-12.3,4.3c-0.6,1.2-0.9,2.6-0.9,4v188.6c0,15.9,12.9,28.7,28.7,28.7
	l0,0h422.5c15.9,0,28.7-12.9,28.7-28.7c0,0,0,0,0,0V394.4c0-6.2-5-11.2-11.2-11.2c-1.7,0-3.4,0.4-4.9,1.1L480.5,492.5z"/>
<rect x="334" y="269" class="st0" width="99" height="14"/>
<rect x="326" y="320" class="st0" width="294" height="8"/>
<rect x="326" y="347" class="st0" width="294" height="8"/>
<rect x="326" y="374" class="st0" width="294" height="8"/>
<line class="st3" x1="61" y1="608.5" x2="885" y2="608.5"/>
<path class="st5" d="M0,485.4C0,544.3,37,592,82.7,592"/>
<path class="st4" d="M82.7,592c0-59.6,41.3-107.9,92.3-107.9"/>
<path class="st4" d="M30,490.7c0,56,23.6,101.3,52.7,101.3"/>
<path class="st5" d="M82.7,592c0-76.2,47.7-137.8,106.7-137.8"/>
<path class="st6" d="M65.3,592.8c0,0,11.7-0.4,15.3-2.9s18-5.5,18.9-1.5s17.6,20.1,4.4,20.2s-30.8-2.1-34.3-4.2
	S65.3,592.8,65.3,592.8z"/>
<path class="st7" d="M104.1,607.2c-13.2,0.1-30.8-2.1-34.3-4.2c-2.7-1.6-3.8-7.5-4.1-10.2c-0.2,0-0.4,0-0.4,0s0.7,9.5,4.3,11.6
	s21.1,4.3,34.3,4.2c3.8,0,5.1-1.4,5.1-3.4C108.4,606.4,106.9,607.2,104.1,607.2z"/>
<path class="st8" d="M719.7,162.8c-0.6,5.4-4.7,9.7-6.2,14.8c-2.3,7.8,1.7,16.1,7,22.2c8.8,9.8,21.1,15.6,34.2,16.3
	c1.9,0.2,3.8,0,5.7-0.6c1.6-0.7,3.1-1.7,4.3-2.9c4.1-4.1,6.2-9.7,7.1-15.4s0.5-11.5,0.2-17.2c0-1.2-0.2-2.4-0.6-3.5
	c-0.6-1.1-1.3-2-2.2-2.7c-2.9-2.7-6.1-5-9.6-7c-1.6-0.7-2.9-1.8-4-3.1c-0.7-1.1-1.1-2.4-1.2-3.7l-1.1-5.4c-0.2-1.6-0.7-3.1-1.6-4.4
	c-1.9-2.5-5.5-2.9-8.6-3l-11.5-0.5c-3.6-0.1-8.3-1.2-11.8-0.5c-3.3,0.7-2.2,3.7-1.6,6.4C719.1,156,719.6,159.4,719.7,162.8z"/>
<path class="st2" d="M719.7,162.8c-0.6,5.4-4.7,9.7-6.2,14.8c-2.3,7.8,1.7,16.1,7,22.2c8.8,9.8,21.1,15.6,34.2,16.3
	c1.9,0.2,3.8,0,5.7-0.6c1.6-0.7,3.1-1.7,4.3-2.9c4.1-4.1,6.2-9.7,7.1-15.4s0.5-11.5,0.2-17.2c0-1.2-0.2-2.4-0.6-3.5
	c-0.6-1.1-1.3-2-2.2-2.7c-2.9-2.7-6.1-5-9.6-7c-1.6-0.7-2.9-1.8-4-3.1c-0.7-1.1-1.1-2.4-1.2-3.7l-1.1-5.4c-0.2-1.6-0.7-3.1-1.6-4.4
	c-1.9-2.5-5.5-2.9-8.6-3l-11.5-0.5c-3.6-0.1-8.3-1.2-11.8-0.5c-3.3,0.7-2.2,3.7-1.6,6.4C719.1,156,719.6,159.4,719.7,162.8z"/>
<path class="st9" d="M792.9,403.8c-1.6,17.9-3.3,35.7-4.9,53.6c-1.3,14.1-2.6,28.2-5.1,42.1c-0.9,4.8-1.9,9.5-3.1,14.3
	c-3.3,13.1-8.2,25.9-9.8,39.3c0,0.4-0.1,0.8-0.1,1.2c-0.2,3-0.7,5.9-1.7,8.7c-0.8,2-2,3.9-2.8,5.9c-1.7,4.1-1.9,8.5-2.1,12.9
	c-5.9-3.3-12.4-5.6-19.2-6.6c-3.3-0.5-6.9-0.8-9.1-3.3c-2.5-2.7-2.2-6.8-1.8-10.4c1.3-11.2,2.6-22.4,3.9-33.6
	c0.4-4.8,1.2-9.6,2.4-14.3c0.4-1.6,1-3.1,1.5-4.6c0.7-2.1,1.5-4.2,2.1-6.4c0.8-3.5,1.4-7,1.7-10.6c1.3-11.3,2.9-22.5,4.3-33.8
	l0.1-0.6c2.1-17.1,3.7-34.2,3.2-51.4c-0.1-2.5-0.2-5.1-0.3-7.6c-0.2-3.7-0.6-5.7,2.5-8c3.4-2.6,7.8-4.3,11.7-6
	c2.1-0.9,25-9,25.6-7.3c1.1,3.8,1.6,7.7,1.7,11.7C793.7,394.1,793.4,399,792.9,403.8z"/>
<path class="st2" d="M782.9,499.4c-0.9,4.8-1.9,9.5-3.1,14.3c-3.3,13.1-8.2,25.9-9.8,39.3c0,0.4-0.1,0.8-0.1,1.2
	c-10.2-14.6-18.8-30.3-28.8-45.1c0.7-2.1,1.5-4.2,2.1-6.4c0.8-3.5,1.4-7,1.7-10.6c1.3-11.3,2.9-22.5,4.3-33.8l0.1-0.6
	c0.6,2.4,1.4,4.7,2.5,6.9c6.7,13.6,22.6,20.5,30.4,33.5C782.5,498.6,782.7,499,782.9,499.4z"/>
<path class="st9" d="M700,379.7c0.3,10.9,2.1,21.7,3.8,32.5l3.6,22.3c2,12.2,4,24.6,9.8,35.5c4.3,8.2,10.5,15.1,16.1,22.4
	c13.8,18,24.2,38.4,37.3,56.9c3.8,5.4,9.3,11.2,15.7,10.1c4.3-0.7,7.4-4.3,10.7-7c4-3.2,8.7-5.6,11.8-9.6s3.7-10.8-0.5-13.7
	c-1.5-0.8-3.1-1.5-4.8-2c-6.5-2.5-10.8-8.9-13.4-15.3s-4.3-13.4-7.9-19.4c-7.8-13-23.7-19.9-30.4-33.5c-3.8-7.6-4.1-16.4-4.4-24.9
	l-0.7-21.7c-0.1-2.4-0.1-4.8,0.8-7c2.6-5.8,10.3-6.3,16.6-7c7.1-0.8,14-3,20.3-6.4c3.6-1.9,7.1-4.4,9.1-8.1c1.8-3.3,2-7.2,2.2-10.9
	l2.2-39.3c0.2-3.4,0.4-6.9-0.8-10c-3-8-13-10.5-21.5-10.2c-15.8,0.7-30.4,7.5-45.3,12.1c-3.7,1.2-7.4,2.1-11.2,2.9
	c-3.3,0.7-7.4,0.4-10.6,1.5c-5.7,1.9-5.5,14.3-6.3,19.4C700.5,359.4,699.7,369.6,700,379.7z"/>
<path class="st10" d="M784.2,561.1c1.4,1.4,1.8,3.5,2.2,5.4c2,10.8,3.1,21.7,3.1,32.7c-0.1,1,0.1,2.1,0.6,3c0.4,0.5,0.9,1,1.5,1.2
	c4,1.9,8.7-0.8,12-3.7c6.2-5.4,11.5-12.8,11.8-21c-0.1-2.1,0-4.3,0.2-6.4c0.5-3.1,2.4-5.8,4-8.5c2.7-4.6,4.9-9.6,6.5-14.7
	c0.6-1.9,1-4.3-0.5-5.7c-0.5-0.4-1.1-0.7-1.8-0.9l-18.2-6.7c-1.6-0.6-5.5,9.5-6.1,10.6c-1.5,2.7-3,4.2-6.1,4.8
	c-3.1,0.6-6.8-0.3-9.7,1.3C779,555.1,781.4,558.3,784.2,561.1z"/>
<path class="st10" d="M756.2,567.3c-0.3-0.7-0.8-1.3-1.4-1.8c-0.8-0.5-1.8-0.9-2.8-0.9c-3.5-0.6-7.6-1-10,1.6
	c-2.2,2.4-1.9,6.3-3.7,9c-0.6,0.9-1.4,1.6-1.9,2.5c-0.6,1.4-0.9,2.9-0.8,4.4c-0.1,4.2-0.2,8.4,0.1,12.6c0.2,3.5,0.8,7.2,3,9.9
	c3.5,4.4,9.9,5,15.5,5.3l4.6,0.2c1.3,0.2,2.5,0,3.7-0.3c1.5-0.7,2.7-2,3.2-3.6c2.4-5.9-1.4-12.3-3.7-18.2
	C759.4,581.3,759.8,573.8,756.2,567.3z"/>
<path class="st1" d="M718.4,132.6c-0.1-0.6,0-1.2,0.3-1.8c0.7-1.2,2.4-0.9,3.7-0.5c5.3,1.3,10.9,0.1,16.3,0.4s11.6,3,12.7,8.4
	c4-2.8,7.4-6.3,10.1-10.3c1.5-2.3,2.8-4.9,2.6-7.6c-0.3-3.9-3.6-6.8-6.6-9.3l-9.1-7.4c-1.2-1.1-2.6-2-4.1-2.6
	c-2.1-0.7-4.4-0.4-6.6-0.4c-6.6,0-13.6-3-19.5,0c-2.5,1.3-4.3,3.4-6.1,5.5l-8.1,9.6c-0.6,0.6-1.1,1.4-1.3,2.2
	c-0.2,1.2,0.4,2.3,0.6,3.5c0.4,2.1-0.5,4.4,0.2,6.5c1.2,3.4,5.3,3.9,7.9,5.9c0.9,0.7,2.4,3.2,3.6,3.2
	C716.9,137.8,718.3,134.2,718.4,132.6z"/>
<circle class="st8" cx="732.1" cy="134.9" r="25.9"/>
<path class="st1" d="M738.2,191.7c-1.8-5.2-6.8-8.6-12.2-8.4c-0.8,0.1-1.6,0-2.3-0.3c-0.4-0.3-0.7-0.7-0.9-1.2
	c-1.6-2.8-2.8-5.8-3.8-8.9c-0.4-1.4-1-3-2.4-3.3c-1.2-0.2-2.3,0.4-3,1.3c-0.7,0.9-1.4,1.9-2.2,2.7c-3.3,2.9-9,0.3-12.5,2.9
	c-0.6,0.4-1,1-1.6,1.4c-0.6,0.4-1.2,0.6-1.9,0.8c-6.7,2.2-13.2,4.7-19.6,7.7c2.3,13.9,4.7,28,10.1,41c2.6,6.2,5.5,12.2,7.5,18.6
	c4.6,14.1,4.8,29.2,4.8,44c0,10.1,0,20.5-3.3,30.1c-0.9,2.1-1.5,4.3-1.9,6.6c-0.2,2.3,0.5,4.8,2.3,6.2c1.1,0.7,2.3,1.1,3.6,1.3
	c5.7,0.8,11.4-0.7,17-2c15-3.5,30.3-5.5,45.6-7.4l25.6-3.3c1.8-0.1,3.6-0.6,5.3-1.4c4.7-2.6,5.1-9.6,2.2-14.1
	c-1.4-2.1-3.4-3.9-4.5-6.2s-1.3-5.5,0.7-7c4.1-3.2,2.9-9.2,3.1-14.4c0.5-14.6,0.5-29.1-0.2-43.7c-0.2-3-0.3-6-0.1-9.1
	c0.5-5.1,1.4-10.2,2.8-15.1l7.8-30.6c-2-3.2-5.9-5.2-9.6-6.2s-7.5-1.2-11.2-2.3c-7.4-2.3-14.1-8.2-21.8-7.6c-0.6,0-1.2,0.2-1.7,0.4
	c-1.8,1-1.5,3.5-1.6,5.5c-0.2,4.4-3.5,8.2-7.1,10.8s-7.7,4.5-11.1,7.5C739,188.8,738.3,190.2,738.2,191.7z"/>
<path class="st8" d="M635.5,220.7c-1.7,1.1-3.5,2.1-5.5,2.8c-1.9,0.6-3.6,1.4-5.2,2.5c-0.7,0.6-1.3,1.4-1.8,2.2
	c-2.7,4.8-1,10.9,3.8,13.6c1.6,0.9,3.5,1.4,5.4,1.3c2.4-0.3,4.7-1,6.8-2l18.3-7.9c3.1-1.3,6.4-2.9,7.9-6c0.2-0.3,0.2-0.6,0.2-0.9
	c-0.1-0.3-0.4-0.6-0.8-0.8c-4.1-2.7-7.7-6.1-10.6-10c-0.8-1-1.7-3.4-2.7-4C647.3,209.2,638.6,218.7,635.5,220.7z"/>
<path class="st8" d="M831,214.2l6.7,7.7c1.4,1.7,2.9,3.3,4.2,5.1c3.2,4.5,5.8,9.4,7.7,14.5c1.5,3.8,2.7,7.9,2.2,12
	c-0.3,2.1-0.9,4.1-1.7,6.1c-1.2,3.8-2.8,7.5-4.6,11c-1.5,2.7-3.2,5.3-5.2,7.7c-5.2,6.9-10.9,13.5-17.1,19.6c-2.3,2.3-3.3,6-4.3,9.1
	c-1.9,5.7-6.3,10.1-10.5,14.3c-1.4,1.4-2.9,2.7-4.5,3.9c-2.4,1.6-5.3,2.4-8.2,2.3c-1.3,0-2.5-0.3-3.7-0.8c-2.9-1.4-4.4-4.8-4.7-8
	c-0.3-2.9,0.2-5.9,1.4-8.5c3.9-8.6,13.8-12.3,20.8-18.5c4.1-3.7,7.3-8.3,10.4-12.8c2.1-2.8,3.9-5.9,5.2-9.2c1.6-4.2,1-9.1,2.3-13.4
	c0.6-1.8,1.6-3.4,2.2-5.2s0.8-3.9-0.3-5.4c-0.8-1-1.9-1.7-3.1-2.2c-4.5-2.3-9.5-5.2-10.4-10.2c-0.3-2.7,0.4-5.5,2-7.8
	c1.6-2.2,3.5-4.2,5.7-5.9C825.7,217.9,829,216,831,214.2z"/>
<path class="st8" d="M631.1,231.5c-1.2-2.4-2.7-4.9-5.1-6.1c-2.4-1-5-1-7.4,0c-2.3,1-4.5,2.3-6.5,3.9l-5.8,4.3
	c-1.3,0.9-2.5,1.9-3.5,3.2c-0.9,1.5-1.5,3.2-1.8,4.9c-1,4-1.3,8.1-0.9,12.2c0.9,6.6,4.9,12.3,9.2,17.3c2.7,3.1,6.1,6.3,10.2,6.4
	c1.8,0.1,3.8-0.6,4.5-2.3c0.3-0.6,0.4-1.3,0.4-2c0.4-7.3-2.2-14.5-5.2-21.1c-1-1.7-1.5-3.7-1.7-5.7c0-0.3,0.1-0.7,0.2-1
	c0.3-0.3,0.6-0.4,1-0.5c4.2-0.8,11.4,2.4,14.3-2.2C635.1,239.8,632.5,234.2,631.1,231.5z"/>
<path class="st1" d="M717,124.4c-0.1-0.6,0-1.2,0.3-1.8c0.7-1.2,2.4-0.9,3.7-0.5c5.3,1.3,10.9,0.1,16.3,0.4s11.6,3,12.7,8.4
	c4-2.8,7.4-6.3,10.1-10.3c1.5-2.3,2.8-4.9,2.6-7.6c-0.3-3.9-3.6-6.8-6.6-9.3l-9.1-7.4c-1.2-1.1-2.6-2-4.1-2.6
	c-2.1-0.7-4.4-0.4-6.6-0.4c-6.6,0-13.6-3-19.5,0c-2.5,1.3-4.3,3.4-6.1,5.5l-8.1,9.6c-0.6,0.6-1.1,1.4-1.3,2.2
	c-0.2,1.2,0.4,2.3,0.6,3.5c0.4,2.1-0.5,4.4,0.2,6.5c1.2,3.4,5.3,3.9,7.9,5.9c0.9,0.7,2.4,3.2,3.6,3.2C715.6,129.6,717,126,717,124.4
	z"/>
<path class="st1" d="M662,195.5c-1,0.7-2,1.5-2.7,2.5c-1,1.4-1.1,3.3-2,4.8c-1.7,3.2-5.8,4.4-8.4,7.1c-0.4,0.4-0.7,0.8-0.8,1.4
	c0,0.7,0.2,1.4,0.7,2l12.3,19.3c4.1,0.4,8-2.2,12.1-1.9c1.5,0.1,3.1,0.7,4.6,0.2c1-0.5,2-1.1,2.9-1.8c2.4-1.5,5.7-1.7,7.7-3.8
	c2-2,2.2-5,2.2-7.8c0-2.4-0.2-4.8-0.7-7.2c-1.8-7.4-7.5-13.1-11-19.7c-1.7-3.2-2.7-5.1-6.3-2.9C668.8,190,665.4,193,662,195.5z"/>
<path class="st1" d="M811.3,185.7c2.3,1.5,4.4,3.3,6.2,5.4c1.9,2.4,2.9,5.4,4.7,7.8c1.7,2.4,4.1,4.2,6.1,6.5c3,3.3,5,7.4,7,11.5
	c-4.9,6.4-10.2,12.4-15.9,18c-0.6,0.7-1.5,1.3-2.4,1.6c-1.3,0.1-2.6-0.4-3.4-1.4c-0.9-0.9-1.5-2.1-2.4-3c-2-2.1-4.7-3.3-7.5-3.6
	c-2.8-0.3-5.7-0.3-8.5-0.1c-0.6,0.1-1.3,0-1.8-0.3c-0.4-0.3-0.8-0.7-1-1.1c-3.3-5.7-2.3-12.8-1.1-19.2l2.7-14.8
	c0.4-2.8,1.1-5.6,2.2-8.2c1-2.2,3.3-5.9,6.1-5.2C805.2,179.9,808.9,184,811.3,185.7z"/>
<ellipse class="st11" cx="318" cy="242.1" rx="41" ry="41.1"/>
<path class="st5" d="M318,194c-27.1,0-49,21.9-49,49s21.9,49,49,49s49-21.9,49-49C366.9,216,345,194.1,318,194z M307.9,269.1
	L282.8,244l7-7l18.1,18.1l38.2-38.2l7,7L307.9,269.1L307.9,269.1z"/>
</svg>
